<?xml version="1.0" standalone="no"?><!DOCTYPE svg PUBLIC "-//W3C//DTD SVG 1.1//EN" "http://www.w3.org/Graphics/SVG/1.1/DTD/svg11.dtd"><svg t="1561528753343" class="icon" viewBox="0 0 1024 1024" version="1.1" xmlns="http://www.w3.org/2000/svg" p-id="1990" xmlns:xlink="http://www.w3.org/1999/xlink" width="128" height="128"><defs><style   type="text/css"></style></defs><path d="M674.432 535.104c58.752-52.096 96.32-131.136 96.32-219.776 0-157.056-117.952-284.224-263.36-284.224-145.536 0-263.488 127.232-263.488 284.224 0 78.784 29.76 150.208 77.824 201.6C327.68 522.624 495.232 677.504 674.432 535.104zM851.072 731.712l-143.168-130.432c-53.76 44.032-206.016 136.896-416.576-3.328-63.36 48.768-232.704 188.8-213.888 283.264 0 0 3.328 98.496 182.4 103.296 0 0 533.696 39.424 622.464-52.416C882.176 932.032 979.136 869.568 851.072 731.712z" p-id="1991" fill="#ffffff"></path></svg>