<?xml version="1.0" standalone="no"?><!DOCTYPE svg PUBLIC "-//W3C//DTD SVG 1.1//EN" "http://www.w3.org/Graphics/SVG/1.1/DTD/svg11.dtd"><svg t="1561622885659" class="icon" viewBox="0 0 1024 1024" version="1.1" xmlns="http://www.w3.org/2000/svg" p-id="2051" xmlns:xlink="http://www.w3.org/1999/xlink" width="128" height="128"><defs><style type="text/css"></style></defs><path d="M100.6 958.1h-1c-11 0-20-9-20-20V348.3c0-11 9-20 20-20h1c11 0 20 9 20 20V938c0 11.1-9 20.1-20 20.1zM914.6 958.1h-1c-11 0-20-9-20-20v-590c0-11 9-20 20-20h1c11 0 20 9 20 20V938c0 11.1-9 20.1-20 20.1z" fill="#ffffff" p-id="2052"></path><path d="M931.4 358.5l-0.5 0.8c-6 9.3-18.4 11.9-27.6 6L502.9 107.6c-9.3-6-11.9-18.4-6-27.6l0.5-0.8c6-9.3 18.4-11.9 27.6-6l400.4 257.7c9.3 5.9 12 18.3 6 27.6z" fill="#ffffff" p-id="2053"></path><path d="M83.3 359.3l-0.5-0.8c-6-9.3-3.3-21.7 6-27.6l409-263.2c9.3-6 21.7-3.3 27.6 6l0.5 0.8c6 9.3 3.3 21.7-6 27.6L111 365.3c-9.3 5.9-21.7 3.2-27.7-6zM338.5 379.8h338v41h-338zM207.5 601.3h599.2v41H207.5z" fill="#ffffff" p-id="2054"></path><path d="M454.3 414.2h106.3v63.2H454.3zM320.3 634.8h106.3V698H320.3zM585 634.8h106.3V698H585zM207.5 817h599.2v41H207.5zM338.5 386.4h41v235.4h-41zM635.5 386.4h41v235.4h-41z" fill="#ffffff" p-id="2055"></path><path d="M207.5 616.1h41v235.4h-41zM765.6 606.1h41v235.4h-41zM487 616.1h41v235.4h-41z" fill="#ffffff" p-id="2056"></path></svg>