<?xml version="1.0" standalone="no"?><!DOCTYPE svg PUBLIC "-//W3C//DTD SVG 1.1//EN" "http://www.w3.org/Graphics/SVG/1.1/DTD/svg11.dtd"><svg t="1561623147747" class="icon" viewBox="0 0 1024 1024" version="1.1" xmlns="http://www.w3.org/2000/svg" p-id="3289" xmlns:xlink="http://www.w3.org/1999/xlink" width="128" height="128"><defs><style type="text/css"></style></defs><path d="M64 160m64 0l512 0q64 0 64 64l0 0q0 64-64 64l-512 0q-64 0-64-64l0 0q0-64 64-64Z" p-id="3290" fill="#ffffff"></path><path d="M64 736m64 0l640 0q64 0 64 64l0 0q0 64-64 64l-640 0q-64 0-64-64l0 0q0-64 64-64Z" p-id="3291" fill="#ffffff"></path><path d="M192 352m64 0l640 0q64 0 64 64l0 0q0 64-64 64l-640 0q-64 0-64-64l0 0q0-64 64-64Z" p-id="3292" fill="#ffffff"></path><path d="M512 544m64 0l320 0q64 0 64 64l0 0q0 64-64 64l-320 0q-64 0-64-64l0 0q0-64 64-64Z" p-id="3293" fill="#ffffff"></path><path d="M128 544m64 0l128 0q64 0 64 64l0 0q0 64-64 64l-128 0q-64 0-64-64l0 0q0-64 64-64Z" p-id="3294" fill="#ffffff"></path></svg>