<?xml version="1.0" standalone="no"?><!DOCTYPE svg PUBLIC "-//W3C//DTD SVG 1.1//EN" "http://www.w3.org/Graphics/SVG/1.1/DTD/svg11.dtd"><svg t="1561623024929" class="icon" viewBox="0 0 1024 1024" version="1.1" xmlns="http://www.w3.org/2000/svg" p-id="2688" xmlns:xlink="http://www.w3.org/1999/xlink" width="128" height="128"><defs><style type="text/css"></style></defs><path d="M513.071543 311.588571l-139.702857 112.420572a196.900571 196.900571 0 0 0-181.467429-108.982857l319.268572-163.84a63.707429 63.707429 0 0 1 92.672 60.854857l77.458285 18.651428 8.045715 5.339429 50.980571 70.290286a14.409143 14.409143 0 1 1-23.259429 16.969143l-48.054857-66.194286-1.682285-0.438857-36.425143-8.777143-35.254857-8.484572a63.561143 63.561143 0 0 1-15.36 18.066286l-37.302858 29.915429-1.170285 20.699428-2.194286 37.302857-0.146286 1.828572 49.225143 65.316571a14.409143 14.409143 0 0 1-22.966857 17.334857l-52.297143-69.485714-2.779428-9.142857 2.413714-39.716571z m432.274286-35.620571v92.379429c0 13.604571-14.189714 27.282286-28.306286 25.014857l-51.712-45.568-49.371429 45.568c-16.457143 2.267429-28.233143-11.410286-28.233143-25.014857V275.968h-13.092571a26.770286 26.770286 0 0 1-26.477714-26.331429v-43.885714l-30.939429-30.72c-10.971429-8.777143-10.971429-24.137143 0-35.108571l30.939429-30.72v-43.885715c0-15.36 13.238857-26.331429 26.477714-26.331428h44.178286l30.866285-30.72c8.777143-10.971429 24.283429-10.971429 35.328 0l30.866286 30.72h44.178286c15.433143 0 26.477714 13.165714 26.477714 26.331428v43.885715l30.866286 30.72c8.850286 10.971429 8.850286 26.331429 0 35.108571l-30.866286 30.72v43.885714c0 15.36-13.238857 26.331429-26.477714 26.331429h-14.774857zM405.844114 709.12h460.653715a157.476571 157.476571 0 0 1 0 314.88H157.524114a157.476571 157.476571 0 0 1-72.850285-297.106286L69.533257 491.52a137.362286 137.362286 0 0 1 101.449143-141.385143A118.564571 118.564571 0 0 1 314.561829 427.885714l91.355428 281.161143z m-228.644571 211.968a59.026286 59.026286 0 1 0 0-118.125714 59.026286 59.026286 0 0 0 0 118.125714z m236.251428 0a59.026286 59.026286 0 1 0 0.073143-118.125714 59.026286 59.026286 0 0 0 0 118.125714z m236.397715 0a59.026286 59.026286 0 1 0 0-118.125714 59.026286 59.026286 0 0 0 0 118.125714z m236.251428 0a59.026286 59.026286 0 1 0 0-118.125714 59.026286 59.026286 0 0 0 0 118.125714zM182.904686 523.849143a59.026286 59.026286 0 1 0 0-118.125714 59.026286 59.026286 0 0 0 0 118.125714z m351.670857-280.137143a28.452571 28.452571 0 0 0 28.086857-28.745143 28.452571 28.452571 0 0 0-28.086857-28.745143 28.452571 28.452571 0 0 0-28.16 28.745143c0 15.872 12.580571 28.745143 28.16 28.745143zM866.497829 219.428571c32.036571 0 59.099429-27.062857 59.099428-59.026285a59.904 59.904 0 0 0-59.099428-59.099429 59.904 59.904 0 0 0-59.099429 59.099429c0 31.963429 27.062857 59.026286 59.099429 59.026285z" p-id="2689" fill="#ffffff"></path></svg>