<?xml version="1.0" standalone="no"?><!DOCTYPE svg PUBLIC "-//W3C//DTD SVG 1.1//EN" "http://www.w3.org/Graphics/SVG/1.1/DTD/svg11.dtd"><svg t="1561528996994" class="icon" viewBox="0 0 1324 1024" version="1.1" xmlns="http://www.w3.org/2000/svg" p-id="2776" xmlns:xlink="http://www.w3.org/1999/xlink" width="128" height="128"><defs><style type="text/css"></style></defs><path d="M65.339695 958.702052v-147.825563h779.496851v147.825563H65.339695z m0-362.072749v-158.438041h779.496851v158.438041H65.339695z m1193.591547 288.28482c0 61.219427-32.7114 90.226864-73.080431 90.226865s-73.080431-29.13229-73.080431-90.226865 32.753018-90.226864 73.080431-90.226864 73.080431 29.13229 73.080431 90.226864zM65.339695 223.819224V65.173095h779.496851v158.438041H65.339695z m1193.591547 293.611867c0 65.58927-32.7114 95.720382-73.080431 95.720382s-73.080431-29.923024-73.080431-95.720382 32.753018-95.720382 73.080431-95.720382 73.080431 29.923024 73.080431 95.720382z m0-372.851697c0 65.630888-32.7114 95.720382-73.080431 95.720382s-73.080431-29.923024-73.080431-95.720382 32.753018-95.720382 73.080431-95.720382 73.080431 29.923024 73.080431 95.720382z m65.339565 601.207235H0.00013v278.296606h1324.270677v-278.296606z m0-372.851697H0.00013v288.950701h1324.270677V372.726844z m0-372.810079H0.00013v288.950701h1324.270677V0.124853z" p-id="2777" fill="#ffffff"></path></svg>